<svg width="50" height="51" viewBox="0 0 50 51" fill="none" xmlns="http://www.w3.org/2000/svg">
<ellipse cx="25" cy="25.5" rx="25" ry="25.5" fill="#1558BE"/>
<path fill-rule="evenodd" clip-rule="evenodd" d="M30 20.4C30 23.205 27.75 25.5 25 25.5C22.25 25.5 20 23.205 20 20.4C20 17.595 22.25 15.3 25 15.3C27.75 15.3 30 17.595 30 20.4ZM25 28.05C31.8933 28.05 36.25 30.9506 36.25 36.975H13.75C13.75 30.9506 18.1067 28.05 25 28.05Z" fill="white"/>
<mask id="mask0_5_16" style="mask-type:alpha" maskUnits="userSpaceOnUse" x="13" y="15" width="24" height="22">
<path fill-rule="evenodd" clip-rule="evenodd" d="M30 20.4C30 23.205 27.75 25.5 25 25.5C22.25 25.5 20 23.205 20 20.4C20 17.595 22.25 15.3 25 15.3C27.75 15.3 30 17.595 30 20.4ZM25 28.05C31.8933 28.05 36.25 30.9506 36.25 36.975H13.75C13.75 30.9506 18.1067 28.05 25 28.05Z" fill="white"/>
</mask>
<g mask="url(#mask0_5_16)">
<rect x="10" y="10.2" width="30" height="30.6" fill="white"/>
</g>
</svg>
