<svg width="40" height="40" viewBox="0 0 40 40" fill="none" xmlns="http://www.w3.org/2000/svg">
<path d="M40 5C40 2.23858 37.7614 0 35 0H0V40H35C37.7614 40 40 37.7614 40 35V5Z" fill="#0A2341"/>
<path fill-rule="evenodd" clip-rule="evenodd" d="M13 16V26C13 26.2652 13.1054 26.5196 13.2929 26.7071C13.4804 26.8946 13.7348 27 14 27H26C26.2652 27 26.5196 26.8946 26.7071 26.7071C26.8946 26.5196 27 26.2652 27 26V16H13ZM14 13C13.4696 13 12.9609 13.2107 12.5858 13.5858C12.2107 13.9609 12 14.4696 12 15V26C12 26.5304 12.2107 27.0391 12.5858 27.4142C12.9609 27.7893 13.4696 28 14 28H26C26.5304 28 27.0391 27.7893 27.4142 27.4142C27.7893 27.0391 28 26.5304 28 26V15C28 14.4696 27.7893 13.9609 27.4142 13.5858C27.0391 13.2107 26.5304 13 26 13H14Z" fill="white"/>
<path fill-rule="evenodd" clip-rule="evenodd" d="M15.5 12C15.6326 12 15.7598 12.0527 15.8536 12.1464C15.9473 12.2402 16 12.3674 16 12.5V13C16 13.1326 15.9473 13.2598 15.8536 13.3536C15.7598 13.4473 15.6326 13.5 15.5 13.5C15.3674 13.5 15.2402 13.4473 15.1464 13.3536C15.0527 13.2598 15 13.1326 15 13V12.5C15 12.3674 15.0527 12.2402 15.1464 12.1464C15.2402 12.0527 15.3674 12 15.5 12V12ZM24.5 12C24.6326 12 24.7598 12.0527 24.8536 12.1464C24.9473 12.2402 25 12.3674 25 12.5V13C25 13.1326 24.9473 13.2598 24.8536 13.3536C24.7598 13.4473 24.6326 13.5 24.5 13.5C24.3674 13.5 24.2402 13.4473 24.1464 13.3536C24.0527 13.2598 24 13.1326 24 13V12.5C24 12.3674 24.0527 12.2402 24.1464 12.1464C24.2402 12.0527 24.3674 12 24.5 12V12Z" fill="white"/>
<path d="M23 18.5C23 18.3674 23.0527 18.2402 23.1464 18.1464C23.2402 18.0527 23.3674 18 23.5 18H24.5C24.6326 18 24.7598 18.0527 24.8536 18.1464C24.9473 18.2402 25 18.3674 25 18.5V19.5C25 19.6326 24.9473 19.7598 24.8536 19.8536C24.7598 19.9473 24.6326 20 24.5 20H23.5C23.3674 20 23.2402 19.9473 23.1464 19.8536C23.0527 19.7598 23 19.6326 23 19.5V18.5ZM20 18.5C20 18.3674 20.0527 18.2402 20.1464 18.1464C20.2402 18.0527 20.3674 18 20.5 18H21.5C21.6326 18 21.7598 18.0527 21.8536 18.1464C21.9473 18.2402 22 18.3674 22 18.5V19.5C22 19.6326 21.9473 19.7598 21.8536 19.8536C21.7598 19.9473 21.6326 20 21.5 20H20.5C20.3674 20 20.2402 19.9473 20.1464 19.8536C20.0527 19.7598 20 19.6326 20 19.5V18.5ZM15 21.5C15 21.3674 15.0527 21.2402 15.1464 21.1464C15.2402 21.0527 15.3674 21 15.5 21H16.5C16.6326 21 16.7598 21.0527 16.8536 21.1464C16.9473 21.2402 17 21.3674 17 21.5V22.5C17 22.6326 16.9473 22.7598 16.8536 22.8536C16.7598 22.9473 16.6326 23 16.5 23H15.5C15.3674 23 15.2402 22.9473 15.1464 22.8536C15.0527 22.7598 15 22.6326 15 22.5V21.5ZM18 21.5C18 21.3674 18.0527 21.2402 18.1464 21.1464C18.2402 21.0527 18.3674 21 18.5 21H19.5C19.6326 21 19.7598 21.0527 19.8536 21.1464C19.9473 21.2402 20 21.3674 20 21.5V22.5C20 22.6326 19.9473 22.7598 19.8536 22.8536C19.7598 22.9473 19.6326 23 19.5 23H18.5C18.3674 23 18.2402 22.9473 18.1464 22.8536C18.0527 22.7598 18 22.6326 18 22.5V21.5Z" fill="white"/>
</svg>
