<svg width="50" height="50" viewBox="0 0 50 50" fill="none" xmlns="http://www.w3.org/2000/svg">
<path d="M11.5625 12.6667L8.58333 9.6875C3.58333 13.5 0.291667 19.375 0 26.0417H4.16667C4.47917 20.5208 7.3125 15.6875 11.5625 12.6667V12.6667ZM37.375 26.0417H41.5417C41.2292 19.375 37.9375 13.5 32.9583 9.6875L30 12.6667C34.2083 15.6875 37.0625 20.5208 37.375 26.0417ZM33.2708 27.0833C33.2708 20.6875 29.8542 15.3333 23.8958 13.9167V12.5C23.8958 10.7708 22.5 9.375 20.7708 9.375C19.0417 9.375 17.6458 10.7708 17.6458 12.5V13.9167C11.6667 15.3333 8.27083 20.6667 8.27083 27.0833V37.5L4.10417 41.6667V43.75H37.4375V41.6667L33.2708 37.5V27.0833ZM20.7708 50C21.0625 50 21.3333 49.9792 21.6042 49.9167C22.9583 49.625 24.0625 48.7083 24.6042 47.4583C24.8125 46.9583 24.9167 46.4167 24.9167 45.8333H16.5833C16.6042 48.125 18.4583 50 20.7708 50Z" fill="#1558BE"/>
</svg>
