<svg width="22" height="22" viewBox="0 0 24 24" fill="none" xmlns="http://www.w3.org/2000/svg">
<path d="M21.1735 5.26396L17.5219 1.58719C17.2806 1.34668 16.954 1.21167 16.6136 1.21167C16.2732 1.21167 15.9467 1.34668 15.7054 1.58719L2.75987 14.5369L1.57792 19.647C1.53714 19.8338 1.53854 20.0273 1.58201 20.2135C1.62548 20.3997 1.70991 20.5738 1.82915 20.7231C1.94839 20.8725 2.09943 20.9932 2.27121 21.0766C2.443 21.1599 2.63121 21.2038 2.82208 21.2049C2.91102 21.2139 3.00064 21.2139 3.08958 21.2049L8.24663 20.0209L21.1735 7.08364C21.4136 6.84192 21.5483 6.51479 21.5483 6.1738C21.5483 5.83281 21.4136 5.50569 21.1735 5.26396ZM7.62455 18.8992L2.79098 19.9149L3.89206 15.1663L13.5779 5.50077L17.3104 9.23985L7.62455 18.8992ZM18.1439 8.33624L14.4115 4.59715L16.5763 2.44095L20.2466 6.18003L18.1439 8.33624Z" fill="#0A2341"/>
</svg>
